<svg width="16" height="16" viewBox="0 0 16 16" fill="none" xmlns="http://www.w3.org/2000/svg">
<path d="M12.001 10.7207C11.4943 10.7207 11.041 10.9207 10.6943 11.234L5.94098 8.46732C5.97431 8.31398 6.00098 8.16065 6.00098 8.00065C6.00098 7.84065 5.97431 7.68732 5.94098 7.53399L10.641 4.79398C11.001 5.12732 11.4743 5.33398 12.001 5.33398C13.1076 5.33398 14.001 4.44065 14.001 3.33398C14.001 2.22732 13.1076 1.33398 12.001 1.33398C10.8943 1.33398 10.001 2.22732 10.001 3.33398C10.001 3.49398 10.0276 3.64732 10.061 3.80065L5.36098 6.54065C5.00098 6.20732 4.52764 6.00065 4.00098 6.00065C2.89431 6.00065 2.00098 6.89399 2.00098 8.00065C2.00098 9.10732 2.89431 10.0007 4.00098 10.0007C4.52764 10.0007 5.00098 9.79399 5.36098 9.46065L10.1076 12.234C10.0743 12.374 10.0543 12.5207 10.0543 12.6673C10.0543 13.7407 10.9276 14.614 12.001 14.614C13.0743 14.614 13.9476 13.7407 13.9476 12.6673C13.9476 11.594 13.0743 10.7207 12.001 10.7207Z" />
</svg>
