<svg width="15" height="15" viewBox="0 0 20 20" fill="none" xmlns="http://www.w3.org/2000/svg">
<path d="M10.0003 18.3327C8.84755 18.3327 7.76422 18.1138 6.75033 17.676C5.73644 17.2382 4.85449 16.6446 4.10449 15.8952C3.35449 15.1457 2.76088 14.2638 2.32366 13.2493C1.88644 12.2349 1.66755 11.1516 1.66699 9.99935C1.66644 8.84713 1.88533 7.76379 2.32366 6.74935C2.76199 5.73491 3.3556 4.85296 4.10449 4.10352C4.85338 3.35407 5.73533 2.76046 6.75033 2.32268C7.76533 1.8849 8.84866 1.66602 10.0003 1.66602C11.152 1.66602 12.2353 1.8849 13.2503 2.32268C14.2653 2.76046 15.1473 3.35407 15.8962 4.10352C16.6451 4.85296 17.2389 5.73491 17.6778 6.74935C18.1167 7.76379 18.3353 8.84713 18.3337 9.99935C18.332 11.1516 18.1131 12.2349 17.677 13.2493C17.2409 14.2638 16.6473 15.1457 15.8962 15.8952C15.1451 16.6446 14.2631 17.2385 13.2503 17.6768C12.2375 18.1152 11.1542 18.3338 10.0003 18.3327ZM10.0003 16.666C11.8614 16.666 13.4378 16.0202 14.7295 14.7285C16.0212 13.4368 16.667 11.8605 16.667 9.99935C16.667 9.90213 16.6637 9.80129 16.657 9.69685C16.6503 9.5924 16.6467 9.50574 16.6462 9.43685C16.5767 9.83963 16.3892 10.173 16.0837 10.4368C15.7781 10.7007 15.417 10.8327 15.0003 10.8327H13.3337C12.8753 10.8327 12.4831 10.6696 12.157 10.3435C11.8309 10.0174 11.6675 9.62491 11.667 9.16602V8.33268H8.33366V6.66602C8.33366 6.20768 8.49699 5.81546 8.82366 5.48935C9.15033 5.16324 9.54255 4.9999 10.0003 4.99935H10.8337C10.8337 4.6799 10.9206 4.39879 11.0945 4.15602C11.2684 3.91324 11.48 3.71518 11.7295 3.56185C11.4517 3.4924 11.1706 3.43685 10.8862 3.39518C10.6017 3.35352 10.3064 3.33268 10.0003 3.33268C8.13921 3.33268 6.56283 3.97852 5.27116 5.27018C3.97949 6.56185 3.33366 8.13824 3.33366 9.99935H7.50033C8.41699 9.99935 9.20171 10.3257 9.85449 10.9785C10.5073 11.6313 10.8337 12.416 10.8337 13.3327V14.166H8.33366V16.4577C8.61144 16.5271 8.88588 16.5793 9.15699 16.6143C9.4281 16.6493 9.70922 16.6666 10.0003 16.666Z" fill="inherit"/>
</svg>
