<svg width="14" height="14" viewBox="0 0 14 14" fill="none" xmlns="http://www.w3.org/2000/svg">
<rect x="1" y="1" width="12" height="12" rx="4" fill="#902BD4"/>
<rect x="1" y="1" width="12" height="12" rx="4" stroke="#0F041C"/>
<path d="M5.05641 6.095L5.05541 6.0965L5.05291 6.0995L5.04541 6.1095L5.01941 6.145C4.99741 6.17533 4.96924 6.218 4.93491 6.273C4.84472 6.42039 4.76743 6.5753 4.70391 6.736C4.54891 7.126 4.42391 7.6785 4.56341 8.3045C4.69541 8.8995 4.95041 9.4515 5.39241 9.8565C5.83841 10.2645 6.45091 10.5 7.25291 10.5C8.06141 10.5 8.69491 10.2285 9.12441 9.7635C9.55041 9.3015 9.75291 8.6735 9.75291 8C9.75291 7.5705 9.60991 7.1555 9.41791 6.768C9.23541 6.399 8.99841 6.036 8.77591 5.6945L8.74291 5.6445C8.50641 5.282 8.29141 4.947 8.14791 4.628C8.00541 4.3095 7.94941 4.038 7.99741 3.799C8.00466 3.76274 8.00377 3.72533 7.99482 3.68946C7.98586 3.65359 7.96907 3.62015 7.94563 3.59155C7.9222 3.56295 7.89271 3.53991 7.8593 3.52408C7.82589 3.50825 7.78938 3.50002 7.75241 3.5C7.54141 3.5 7.18941 3.574 6.85591 3.7465C6.51941 3.921 6.16791 4.213 6.01491 4.671C5.81991 5.256 6.04491 5.916 6.23641 6.3325C6.32191 6.5175 6.24791 6.7225 6.10641 6.7935C6.07462 6.80954 6.03997 6.81914 6.00446 6.82174C5.96894 6.82434 5.93327 6.81989 5.89948 6.80864C5.8657 6.79739 5.83447 6.77957 5.8076 6.75621C5.78073 6.73284 5.75874 6.7044 5.74291 6.6725L5.47591 6.138C5.4571 6.1004 5.42912 6.06814 5.39454 6.04422C5.35997 6.0203 5.31992 6.00549 5.2781 6.00115C5.23628 5.99681 5.19404 6.00309 5.15529 6.01941C5.11654 6.03573 5.08253 6.06205 5.05641 6.095Z" fill="white"/>
</svg>
