<svg width="14" height="14" viewBox="0 0 14 14" fill="none" xmlns="http://www.w3.org/2000/svg">
<rect x="1" y="1" width="12" height="12" rx="4" fill="#10B981"/>
<rect x="1" y="1" width="12" height="12" rx="4" stroke="black"/>
<g clip-path="url(#clip0_10003_15476)">
<path d="M7.04297 4.4502C5.38877 4.4502 4.04297 5.796 4.04297 7.4502C4.04258 7.91321 4.15056 8.36989 4.35827 8.78369C4.40927 8.88569 4.51307 8.95019 4.62677 8.95019H9.45887C9.57257 8.95019 9.67667 8.88569 9.72767 8.78369C9.93538 8.36989 10.0434 7.91321 10.043 7.4502C10.043 5.796 8.69717 4.4502 7.04297 4.4502ZM8.54957 5.9568L7.36097 7.7682C7.3279 7.8187 7.2852 7.86218 7.23531 7.89615C7.18541 7.93012 7.12931 7.95392 7.0702 7.96618C7.0111 7.97845 6.95015 7.97893 6.89086 7.96761C6.83157 7.95628 6.7751 7.93337 6.72467 7.9002C6.66085 7.85846 6.60844 7.80149 6.57216 7.73442C6.53588 7.66735 6.51689 7.5923 6.51689 7.51605C6.51689 7.43979 6.53588 7.36474 6.57216 7.29767C6.60844 7.2306 6.66085 7.17363 6.72467 7.1319L8.53607 5.9433C8.53827 5.94193 8.54091 5.94149 8.54343 5.94205C8.54595 5.94261 8.54816 5.94413 8.54957 5.9463C8.55052 5.94788 8.55102 5.9497 8.55102 5.95155C8.55102 5.95339 8.55052 5.95521 8.54957 5.9568Z" fill="white"/>
</g>
<defs>
<clipPath id="clip0_10003_15476">
<rect width="7.2" height="7.2" fill="white" transform="translate(3.44238 3.25)"/>
</clipPath>
</defs>
</svg>
