<svg width="20" height="14" viewBox="0 0 20 14" fill="inherit" xmlns="http://www.w3.org/2000/svg">
<path d="M20 6.37424C20 6.54 19.9342 6.69897 19.8169 6.81618C19.6997 6.93339 19.5408 6.99924 19.375 6.99924H0.625C0.45924 6.99924 0.300269 6.93339 0.183058 6.81618C0.065848 6.69897 0 6.54 0 6.37424C0 6.20848 0.065848 6.0495 0.183058 5.93229C0.300269 5.81508 0.45924 5.74924 0.625 5.74924H2.80625L6.51719 0.63908C6.62964 0.484682 6.77598 0.35811 6.94498 0.269081C7.11397 0.180053 7.30112 0.130937 7.49205 0.125506C7.68298 0.120074 7.87262 0.158471 8.0464 0.237749C8.22018 0.317026 8.37348 0.435075 8.49453 0.58283L9.49844 1.74689L9.51406 1.76486C9.57223 1.83794 9.64613 1.89695 9.73027 1.93752C9.8144 1.97808 9.9066 1.99914 10 1.99914C10.0934 1.99914 10.1856 1.97808 10.2697 1.93752C10.3539 1.89695 10.4278 1.83794 10.4859 1.76486L10.5016 1.74689L11.5055 0.58283C11.6265 0.435075 11.7798 0.317026 11.9536 0.237749C12.1274 0.158471 12.317 0.120074 12.5079 0.125506C12.6989 0.130937 12.886 0.180053 13.055 0.269081C13.224 0.35811 13.3704 0.484682 13.4828 0.63908L17.1938 5.74924H19.375C19.5408 5.74924 19.6997 5.81508 19.8169 5.93229C19.9342 6.0495 20 6.20848 20 6.37424ZM14.0625 8.24924C13.3708 8.24937 12.7034 8.50441 12.1878 8.96561C11.6723 9.4268 11.3448 10.0618 11.268 10.7492H8.73203C8.65499 10.0624 8.32778 9.42804 7.81283 8.96711C7.29787 8.50618 6.63123 8.25099 5.94013 8.25024C5.24902 8.24949 4.58182 8.50322 4.06587 8.96302C3.54991 9.42283 3.22131 10.0565 3.14278 10.7431C3.06424 11.4298 3.24127 12.1213 3.64008 12.6857C4.03889 13.2501 4.63156 13.648 5.30499 13.8033C5.97843 13.9586 6.68547 13.8605 7.2912 13.5278C7.89693 13.195 8.35894 12.6509 8.58906 11.9992H11.4109C11.5828 12.4854 11.885 12.9149 12.2845 13.2409C12.684 13.5669 13.1655 13.7767 13.6762 13.8476C14.1869 13.9184 14.7073 13.8475 15.1805 13.6425C15.6536 13.4376 16.0613 13.1065 16.359 12.6855C16.6567 12.2645 16.8329 11.7697 16.8684 11.2553C16.9039 10.7409 16.7973 10.2267 16.5603 9.76877C16.3232 9.31086 15.9649 8.92693 15.5243 8.65894C15.0838 8.39095 14.5781 8.24922 14.0625 8.24924Z" fill="inherit"/>
</svg>
