<svg width="196" height="157.08" viewBox="0 0 414 332" fill="none" xmlns="http://www.w3.org/2000/svg">
<path d="M374.478 177.51C380.771 167.703 388.127 154.535 388.571 142.359C389.015 130.182 380.595 116.051 369.75 109.182C358.906 102.314 318.572 86.5023 294.48 86.9803C270.388 87.4584 232.675 85.0259 207.371 97.8141C182.215 110.469 145.362 138.661 133.749 156.103C122.137 173.545 110.644 192.373 109.263 210.11C107.882 227.848 115.605 251.857 136.667 262.979C157.728 274.101 191.573 280.337 203.545 279.472C215.517 278.607 229.222 273.299 229.222 273.299L374.478 177.51Z" fill="#111827"/>
<path d="M254.892 299.368C239.136 290.629 169.017 251.709 166.43 228.298C163.844 204.886 174.611 180.069 205.257 155.744C236.261 131.089 291.132 105.92 312.941 108.338C334.75 110.757 341.324 117.759 346.306 123.397C351.288 129.036 357.799 149.297 369.7 165.108C381.602 180.92 396.949 196.337 404.679 211.038C412.409 225.738 417.461 231.363 411.134 240.333C404.806 249.304 378.783 274.585 371.046 285.855C363.309 297.125 349.97 309.055 339.062 318.406C328.154 327.756 312.68 327.651 296.41 320.515C280.14 313.379 254.892 299.368 254.892 299.368Z" fill="#111827"/>
<path d="M374.478 177.51C380.771 167.703 388.127 154.535 388.571 142.359C389.015 130.182 380.595 116.051 369.75 109.182C358.906 102.314 318.572 86.5023 294.48 86.9803C270.388 87.4584 232.675 85.0259 207.371 97.8141C182.215 110.469 145.362 138.661 133.749 156.103C122.137 173.545 110.644 192.373 109.263 210.11C107.882 227.848 115.605 251.857 136.667 262.979C157.728 274.101 191.573 280.337 203.545 279.472C215.517 278.607 229.222 273.299 229.222 273.299L374.478 177.51Z" fill="#111827"/>
<mask id="mask0_4326_18887" style="mask-type:luminance" maskUnits="userSpaceOnUse" x="109" y="86" width="280" height="194">
<path d="M374.476 177.511C380.769 167.704 388.125 154.536 388.569 142.36C389.013 130.183 380.593 116.052 369.748 109.183C358.904 102.315 318.57 86.5032 294.478 86.9813C270.386 87.4594 232.673 85.0268 207.369 97.8151C182.213 110.47 145.36 138.662 133.747 156.104C122.135 173.546 110.642 192.374 109.261 210.111C107.88 227.849 115.603 251.858 136.665 262.98C157.727 274.102 191.571 280.338 203.543 279.473C215.515 278.608 229.22 273.3 229.22 273.3L374.476 177.511Z" fill="white"/>
</mask>
<g mask="url(#mask0_4326_18887)">
<path d="M218.885 263.429C212.543 266.515 199.86 273.272 174.781 266.03C149.703 258.789 125.421 250.648 121.369 237.206C117.317 223.764 112.138 200.409 132.009 172.526C152.134 144.405 185.492 113.387 207.717 106.729C229.941 100.071 283.551 90.1515 313.005 97.5897C342.459 105.028 359.371 110.504 364.113 114.427C368.855 118.35 391.355 131.3 371.66 162.937C352.226 194.405 218.885 263.429 218.885 263.429Z" fill="#111827"/>
<path d="M363.881 167.205C368.652 156.301 374.261 150.831 373.479 139.281C372.697 127.73 367.975 118.471 347.569 109.788C327.162 101.106 283.594 94.8415 283.594 94.8415C307.636 92.8941 346.371 103.981 361.105 112.27C370.11 117.353 387.452 132.025 377.129 153.805C366.806 175.585 369.603 173.49 369.603 173.49L363.881 167.205Z" fill="#111827"/>
<path d="M209.521 264.927C200.205 267.647 187.148 266.452 178.84 264.315C170.532 262.178 141.494 256.891 121.764 238.802C121.764 238.802 134.969 258.487 153.297 264.041C171.625 269.595 201.741 275.064 212.642 270.551L209.521 264.927Z" fill="#111827"/>
</g>
<path d="M254.892 299.368C239.136 290.629 169.017 251.709 166.43 228.298C163.844 204.886 174.611 180.069 205.257 155.744C236.261 131.089 291.132 105.92 312.941 108.338C334.75 110.757 341.324 117.759 346.306 123.397C351.288 129.036 357.799 149.297 369.7 165.108C381.602 180.92 396.949 196.337 404.679 211.038C412.409 225.738 417.461 231.363 411.134 240.333C404.806 249.304 378.783 274.585 371.046 285.855C363.309 297.125 349.97 309.055 339.062 318.406C328.154 327.756 312.68 327.651 296.41 320.515C280.14 313.379 254.892 299.368 254.892 299.368Z" fill="#111827"/>
<mask id="mask1_4326_18887" style="mask-type:luminance" maskUnits="userSpaceOnUse" x="166" y="108" width="249" height="218">
<path d="M254.898 299.37C239.142 290.631 169.022 251.711 166.436 228.299C163.85 204.888 174.617 180.071 205.262 155.746C236.267 131.09 291.138 105.922 312.947 108.34C334.756 110.759 341.33 117.761 346.312 123.399C351.294 129.038 357.805 149.299 369.706 165.11C381.608 180.922 396.955 196.339 404.685 211.04C412.415 225.74 417.467 231.365 411.14 240.335C404.812 249.306 378.789 274.587 371.052 285.857C363.315 297.127 349.976 309.057 339.068 318.408C328.16 327.758 312.686 327.653 296.416 320.517C280.145 313.381 254.898 299.37 254.898 299.37Z" fill="white"/>
</mask>
<g mask="url(#mask1_4326_18887)">
<path d="M199.646 267.213C197.532 255.261 198.033 227.843 217.262 209.029C236.661 190.047 271.823 161.926 290.637 156.393C309.452 150.86 351.237 144.392 364.316 151.233L346.53 113.001L309.247 99.1797L233.469 128.475L157.854 198.744L167.458 245.25L199.646 267.213Z" fill="#111827"/>
<path d="M305.343 288.086C309.895 296.817 328.751 304.881 341.048 296.438C353.344 287.994 383.735 260.695 394.537 261.94L354.957 309.437C354.957 309.437 341.329 315.349 331.633 316.123C321.937 316.896 292.222 315.546 291.384 303.77C290.545 291.995 305.343 288.086 305.343 288.086Z" fill="#111827"/>
<path d="M407.604 249.996C397.083 252.702 370.602 258.945 357.644 264.401C344.686 269.857 301.406 289.085 296.185 293.879C290.963 298.674 286.622 303.462 297.594 310.049C308.565 316.637 336.786 319.055 351.38 311.8L325.568 330.5L273.911 316.651C273.911 316.651 271.501 301.887 277.018 297.851C282.536 293.816 407.575 235.984 417.285 234.191L407.604 249.996Z" fill="#111827"/>
</g>
<path d="M374.478 177.51C380.771 167.703 388.127 154.535 388.571 142.359C389.015 130.182 380.595 116.051 369.75 109.182C358.906 102.314 318.572 86.5023 294.48 86.9803C270.388 87.4584 232.675 85.0259 207.371 97.8141C182.215 110.469 145.362 138.661 133.749 156.103C122.137 173.545 110.644 192.373 109.263 210.11C107.882 227.848 115.605 251.857 136.667 262.979C157.728 274.101 191.573 280.337 203.545 279.472C215.517 278.607 229.222 273.299 229.222 273.299L374.478 177.51Z" fill="#111827"/>
<path d="M254.892 299.368C239.136 290.629 169.017 251.709 166.43 228.298C163.844 204.886 174.611 180.069 205.257 155.744C236.261 131.089 291.132 105.92 312.941 108.338C334.75 110.757 341.324 117.759 346.306 123.397C351.288 129.036 357.799 149.297 369.7 165.108C381.602 180.92 396.949 196.337 404.679 211.038C412.409 225.738 417.461 231.363 411.134 240.333C404.806 249.304 378.783 274.585 371.046 285.855C363.309 297.125 349.97 309.055 339.062 318.406C328.154 327.756 312.68 327.651 296.41 320.515C280.14 313.379 254.892 299.368 254.892 299.368Z" fill="#111827"/>
<path d="M269.556 228.916L287.919 230.041L291.534 238.941L203.39 319.221C201.775 318.099 199.843 317.518 197.875 317.565C195.907 317.612 194.006 318.283 192.446 319.481C186.696 323.7 168.115 340.917 145.066 326.083C122.129 311.319 110.073 292.464 113.145 285.054C116.217 277.644 130.162 265.65 123.652 258.655C117.141 251.659 106.803 256.278 92.7668 265.439C78.7302 274.6 45.8654 248.728 37.621 233.43C29.3766 218.132 52.5877 200.31 53.1233 197.687L53.6236 195.058C53.6236 195.058 50.6359 190.889 53.687 188.133L56.7311 185.377L135.962 117.077L124.307 116.564L123.151 108.83L140.866 107.656L145.39 115.966L64.9402 190.79C64.9402 190.79 87.7356 200.31 95.825 208.528C103.914 216.747 108.297 221.253 118.768 229.57C129.239 237.887 193.32 287.43 205.257 305.357L278.54 241.62L277.54 236.488L267.78 238.238L269.556 228.916Z" fill="#111827"/>
<path d="M149.843 255.657C149.927 258.146 150.71 269.057 148.06 275.877C145.411 282.696 141.302 294.788 128.598 294.788L145.058 255.657H149.843Z" fill="#1F2937"/>
<path d="M74.3623 214.304C74.2495 216.786 74.1649 227.732 70.9799 234.32C67.7949 240.907 62.7426 252.641 50.0801 251.636L69.5777 213.925L74.3623 214.304Z" fill="#1F2937"/>
<path d="M7.3418 162.469L102.829 114.732L126.336 116.884C126.336 116.884 140.725 124.413 127.745 134.291L105.436 127.654L9.96309 175.039L7.3418 162.469Z" fill="#4B5563"/>
<mask id="mask2_4326_18887" style="mask-type:luminance" maskUnits="userSpaceOnUse" x="7" y="114" width="127" height="62">
<path d="M7.34375 162.468L102.831 114.731L126.338 116.883C126.338 116.883 140.727 124.412 127.747 134.29L105.438 127.653L9.96504 175.038L7.34375 162.468Z" fill="white"/>
</mask>
<g mask="url(#mask2_4326_18887)">
<path d="M6.09294 168.938L107.738 118.319L100.185 112.575L2.49219 162.435L6.09294 168.938Z" fill="#1F2937"/>
<path d="M137.065 121.012L107.737 118.319L101.98 113.946L131.843 115.992L137.065 121.012Z" fill="#6B7280"/>
</g>
<path d="M148.879 244.021L246.275 195.364L269.782 197.494C269.782 197.494 284.178 205.024 271.192 214.902L248.89 208.265L153.445 255.657L148.879 244.021Z" fill="#4B5563"/>
<mask id="mask3_4326_18887" style="mask-type:luminance" maskUnits="userSpaceOnUse" x="148" y="195" width="129" height="61">
<path d="M148.877 244.022L246.273 195.365L269.781 197.495C269.781 197.495 284.176 205.025 271.19 214.903L248.888 208.266L153.443 255.658L148.877 244.022Z" fill="white"/>
</mask>
<g mask="url(#mask3_4326_18887)">
<path d="M149.538 249.554L251.191 198.935L243.63 193.191L145.938 243.044L149.538 249.554Z" fill="#1F2937"/>
<path d="M280.513 201.628L251.193 198.936L245.436 194.556L275.299 196.601L280.513 201.628Z" fill="#6B7280"/>
</g>
<path d="M155.255 255.011L148.025 259.264L148.054 250.989L155.248 246.996L155.255 255.011Z" fill="#1F2937"/>
<path d="M148.061 250.988L155.248 246.995C155.248 246.995 116.042 222.627 108.107 219.274C100.173 215.921 86.2634 212.455 80.6262 209.221C74.989 205.987 56.5484 188.762 48.8607 184.333C41.1729 179.904 7.1032 161.133 7.1032 161.133L0.0214844 164.957L15.1362 177.289L44.1607 192.123L70.0706 216.3L97.7774 225.51L130.642 243.086L148.061 250.988Z" fill="#6B7280"/>
<path d="M148.061 250.989V258.526C148.061 258.526 142.705 259.067 142.889 264.628C143.072 270.189 139.471 290.64 132.093 294.247C124.716 297.854 92.5133 283.701 86.3969 259.257C80.2806 234.812 80.1608 229.209 76.2007 226.446C72.2405 223.683 69.4854 225.138 67.9211 228.963C66.3567 232.787 60.5011 250.631 50.4105 251.587C40.32 252.543 20.5475 234.355 17.9967 230.763C15.4459 227.17 8.04004 211.38 7.20151 201.685C6.36298 191.99 5.99656 177.515 0 173.922V164.944C0 164.944 30.469 181.817 37.3041 186.246C44.1392 190.676 58.6549 202.283 68.4918 209.7C78.3287 217.117 85.037 217.004 95.8322 221.187C106.627 225.37 148.061 250.989 148.061 250.989Z" fill="#4B5563"/>
<path d="M86.5188 232.556C88.5552 227.297 103.466 231.642 114.465 237.477C128.015 244.662 136.654 253.302 136.654 259.271C136.654 265.24 136.175 287.976 129.213 290.971C122.251 293.966 102.5 281.558 96.3486 272.425C90.958 264.41 82.6291 242.616 86.5188 232.556Z" fill="#6B7280"/>
<mask id="mask4_4326_18887" style="mask-type:luminance" maskUnits="userSpaceOnUse" x="85" y="230" width="52" height="62">
<path d="M86.5149 232.555C88.5513 227.296 103.462 231.641 114.461 237.476C128.012 244.661 136.651 253.301 136.651 259.27C136.651 265.239 136.171 287.975 129.21 290.97C122.248 293.965 102.496 281.557 96.3447 272.424C90.9541 264.409 82.6252 242.615 86.5149 232.555Z" fill="white"/>
</mask>
<g mask="url(#mask4_4326_18887)">
<path d="M92.6314 225.497C92.6314 225.497 92.8709 242.461 96.7113 253.126C100.552 263.792 109.782 278.513 123.213 282.689C136.644 286.865 140.364 286.204 140.364 286.204L139.047 295.66L96.4365 285.452L82.6465 240.338L83.5203 225.497H92.6314Z" fill="#1F2937"/>
</g>
<path d="M12.3941 183.855C17.5451 181.218 27.5018 183.229 38.1772 190.794C49.2754 198.654 60.2961 207.153 62.2198 219.871C63.4036 227.689 56.5262 246.397 51.2484 246.995C45.9706 247.592 34.5835 241.651 26.3039 233.995C19.1728 227.394 14.3248 218.318 11.1892 206.05C8.88495 196.973 8.1803 185.999 12.3941 183.855Z" fill="#6B7280"/>
<mask id="mask5_4326_18887" style="mask-type:luminance" maskUnits="userSpaceOnUse" x="9" y="182" width="54" height="66">
<path d="M12.398 183.855C17.549 181.218 27.5057 183.229 38.1811 190.794C49.2793 198.654 60.3 207.153 62.2237 219.871C63.4075 227.689 56.5301 246.397 51.2523 246.995C45.9745 247.592 34.5874 241.651 26.3078 233.995C19.1767 227.394 14.3287 218.318 11.1931 206.05C8.88886 196.973 8.1842 185.999 12.398 183.855Z" fill="white"/>
</mask>
<g mask="url(#mask5_4326_18887)">
<path d="M18.634 179.054C18.634 179.054 17.6757 208.026 22.9465 217.018C28.2172 226.009 42.2609 237.596 48.2574 239.515C54.254 241.434 63.6117 242.861 63.6117 242.861L55.2123 251.713L19.9799 239.156L7.77539 205.115L10.2628 178.245L18.634 179.054Z" fill="#1F2937"/>
</g>
<path d="M292.49 75.9961C303.715 79.3777 317.857 84.4325 326.151 92.2574C334.445 100.082 337.369 113.595 333.775 123.521C330.182 133.448 310.698 163.862 292.49 175.476C274.282 187.09 247.829 207.366 220.094 211.38C192.359 215.394 144.521 214.755 123.142 208.87C101.763 202.986 79.1083 195.991 65.1422 184.798C51.176 173.606 39.7396 153.752 48.4138 136.007C57.088 118.263 79.7425 97.5653 89.9035 92.2855C100.065 87.0057 114.672 83.849 114.672 83.849L292.49 75.9961Z" fill="#374151"/>
<mask id="mask6_4326_18887" style="mask-type:luminance" maskUnits="userSpaceOnUse" x="45" y="75" width="291" height="139">
<path d="M292.496 75.9951C303.721 79.3767 317.863 84.4316 326.157 92.2564C334.451 100.081 337.375 113.594 333.781 123.52C330.187 133.447 310.704 163.861 292.496 175.475C274.288 187.089 247.835 207.365 220.1 211.379C192.365 215.393 144.527 214.754 123.148 208.869C101.769 202.985 79.1141 195.99 65.148 184.797C51.1819 173.605 39.7454 153.751 48.4197 136.006C57.0939 118.262 79.7483 97.5643 89.9094 92.2845C100.07 87.0047 114.678 83.8481 114.678 83.8481L292.496 75.9951Z" fill="white"/>
</mask>
<g mask="url(#mask6_4326_18887)">
<path d="M113.409 95.4225C106.215 96.477 91.3961 98.1714 76.5774 115.276C61.7586 132.381 48.3915 149.725 54.987 160.685C61.5825 171.646 74.4564 189.833 110.02 198.699C145.584 207.564 192.795 211.796 214.174 205.251C235.553 198.706 282.236 178.753 299.169 159.237C316.101 139.721 325.163 127.741 326.122 122.799C327.08 117.856 335.472 98.1924 299.909 86.986C264.345 75.7796 113.409 95.4225 113.409 95.4225Z" fill="#4B5563"/>
<path d="M291.225 88.0327C302.021 92.8907 309.856 93.7344 316.839 101.756C323.822 109.778 326.366 118.235 316.839 134.096C307.313 149.956 279.105 175.645 279.105 175.645C298.321 165.036 319.778 138.518 325.309 125.73C328.699 117.912 332.081 99.6469 310.068 90.3527C288.055 81.0586 291.437 81.0586 291.437 81.0586L291.225 88.0327Z" fill="#1F2937"/>
<path d="M104.94 99.0136C95.6312 101.755 86.1044 108.941 81.0239 114.431C75.9433 119.922 56.6783 137.631 54.1345 159.426C54.1345 159.426 50.3294 139.783 60.9132 127.086C71.497 114.389 91.6077 96.0397 103.46 93.7197L104.94 99.0136Z" fill="#1F2937"/>
</g>
<path d="M116.934 53.885C110.445 67.4044 82.2163 127.662 96.8941 144.577C111.572 161.492 137.538 172.719 178.182 173.851C218.826 174.983 277.249 164.578 291.927 152.163C306.605 139.747 306.886 131.887 306.886 125.693C306.886 119.499 298.431 102.887 297.021 86.5481C295.612 70.2095 297.303 52.4789 293.639 38.9595C289.975 25.4401 290.25 19.2745 279.546 16.4623C268.842 13.6502 231.841 9.70612 218.298 6.0433C204.755 2.38047 186.081 0.939245 171.136 0.0674782C156.19 -0.804288 143.76 6.8307 135.572 19.4994C127.384 32.1682 116.934 53.885 116.934 53.885Z" fill="#4B5563"/>
<mask id="mask7_4326_18887" style="mask-type:luminance" maskUnits="userSpaceOnUse" x="92" y="0" width="215" height="174">
<path d="M116.932 53.885C110.443 67.4044 82.2144 127.662 96.8922 144.577C111.57 161.492 137.536 172.719 178.18 173.851C218.825 174.983 277.247 164.578 291.925 152.163C306.603 139.747 306.884 131.887 306.884 125.693C306.884 119.499 298.429 102.887 297.019 86.5481C295.61 70.2095 297.301 52.4789 293.637 38.9595C289.973 25.4401 290.248 19.2745 279.544 16.4623C268.84 13.6502 231.839 9.70612 218.296 6.0433C204.753 2.38047 186.08 0.939245 171.134 0.0674782C156.188 -0.804288 143.758 6.8307 135.57 19.4994C127.382 32.1682 116.932 53.885 116.932 53.885Z" fill="white"/>
</mask>
<g mask="url(#mask7_4326_18887)">
<path d="M95.4827 102.315C102.254 111.328 122.013 129.354 150.234 132.447C178.455 135.54 224.75 136.933 242.818 131.315C260.885 125.698 296.723 109.359 302.086 98.3779L313.945 132.447L295.314 160.048L218.507 178.067L111.288 168.492L85.6035 132.728L95.4827 102.315Z" fill="#1F2937"/>
<path d="M164.84 36.7017C162.515 28.68 172.041 14.106 187.494 13.6842C202.947 13.2624 244.86 16.4261 252.484 10.3026L189.82 -1.7334C189.82 -1.7334 175.022 1.00845 166.749 5.2337C158.477 9.45896 135.625 24.8766 143.038 33.1091C150.451 41.3417 164.84 36.7017 164.84 36.7017Z" fill="#374151"/>
<path d="M270.491 11.786C260.541 15.1606 235.773 24.033 222.018 26.7748C208.264 29.5167 161.045 37.9742 153.667 37.3204C146.29 36.6665 139.426 35.6471 143.654 25.9312C147.882 16.2152 168.845 0.797567 185.355 -1.4873L152.124 -1.27639L120.154 33.1724C120.154 33.1724 128.413 44.1539 135.607 44.1539C142.802 44.1539 279.56 21.1294 288.241 17.5439L270.491 11.786Z" fill="#6B7280"/>
</g>
</svg>
