<svg width="86" height="28" viewBox="0 0 86 28" fill="none" xmlns="http://www.w3.org/2000/svg">
<g clip-path="url(#clip0_8729_52628)">
<rect x="0.101562" y="0.316406" width="27.2454" height="27.2454" rx="13.6227" fill="#F36FD5"/>
<g clip-path="url(#clip1_8729_52628)">
<path d="M0.625 22.3256H31.4815L27.5407 18.6574L23.472 3.98438L15.9783 9.02822L6.72136 3.98438L3.63571 18.1989L0.625 22.3256Z" fill="#280A46"/>
<path d="M4.01291 22.3281L1.875 27.8305H28.5526L26.6616 22.3281H4.01291Z" fill="#280A46"/>
<path d="M14.9644 21.8672C14.9644 23.8389 13.4304 25.4346 11.5349 25.4346C9.63948 25.4346 8.10547 23.8389 8.10547 21.8672" fill="white"/>
<path d="M24.2222 21.8672C24.2222 23.8389 22.6882 25.4346 20.7928 25.4346C18.8973 25.4346 17.3633 23.8389 17.3633 21.8672" fill="white"/>
<path d="M12.3726 24.1604C13.3464 24.1604 14.1358 23.3393 14.1358 22.3263C14.1358 21.3134 13.3464 20.4922 12.3726 20.4922C11.3988 20.4922 10.6094 21.3134 10.6094 22.3263C10.6094 23.3393 11.3988 24.1604 12.3726 24.1604Z" fill="#280A46"/>
<path d="M21.4468 24.1604C22.4206 24.1604 23.21 23.3393 23.21 22.3263C23.21 21.3134 22.4206 20.4922 21.4468 20.4922C20.473 20.4922 19.6836 21.3134 19.6836 22.3263C19.6836 23.3393 20.473 24.1604 21.4468 24.1604Z" fill="#280A46"/>
</g>
</g>
<path d="M31.3941 25.457V2.1811H46.3572V6.17126H35.7833V11.7242H45.4262V15.7144H35.7833V21.4669H46.5567V25.457H31.3941ZM48.2762 25.457V2.1811H52.4659V25.457H48.2762ZM58.1726 25.457V12.4225H53.983V8.96437H58.1726V5.90525C58.1726 4.77471 58.5051 3.87692 59.1702 3.21189C59.8574 2.5247 60.7441 2.1811 61.8303 2.1811H66.1529V5.63924H63.2933C62.6726 5.63924 62.3623 5.97175 62.3623 6.63678V8.96437H66.685V12.4225H62.3623V25.457H58.1726ZM73.1269 25.9225C71.952 25.9225 70.8991 25.723 69.968 25.324C69.037 24.9028 68.2944 24.3043 67.7402 23.5285C67.2082 22.7304 66.9421 21.7661 66.9421 20.6356C66.9421 19.505 67.2082 18.5629 67.7402 17.8092C68.2944 17.0334 69.0481 16.457 70.0013 16.0802C70.9766 15.6811 72.085 15.4816 73.3264 15.4816H77.8486V14.5506C77.8486 13.7747 77.6047 13.143 77.117 12.6553C76.6294 12.1454 75.8535 11.8905 74.7895 11.8905C73.7476 11.8905 72.9717 12.1343 72.4619 12.622C71.952 13.0875 71.6195 13.6971 71.4643 14.4508L67.6072 13.154C67.8732 12.3117 68.2944 11.5469 68.8707 10.8597C69.4692 10.1503 70.2562 9.58507 71.2316 9.16388C72.2291 8.72053 73.4372 8.49885 74.856 8.49885C77.0284 8.49885 78.7464 9.04196 80.0099 10.1282C81.2735 11.2144 81.9052 12.7883 81.9052 14.8499V21.0014C81.9052 21.6664 82.2156 21.9989 82.8363 21.9989H84.1663V25.457H81.3732C80.553 25.457 79.8769 25.2575 79.3449 24.8585C78.8129 24.4595 78.5469 23.9275 78.5469 23.2624V23.2292H77.9151C77.8264 23.4952 77.6269 23.8499 77.3166 24.2932C77.0062 24.7144 76.5185 25.0913 75.8535 25.4238C75.1885 25.7563 74.2796 25.9225 73.1269 25.9225ZM73.8584 22.5309C75.0333 22.5309 75.9865 22.2095 76.718 21.5666C77.4717 20.9016 77.8486 20.026 77.8486 18.9398V18.6073H73.6257C72.8498 18.6073 72.2402 18.7735 71.7968 19.106C71.3535 19.4385 71.1318 19.9041 71.1318 20.5026C71.1318 21.1011 71.3646 21.5888 71.8301 21.9656C72.2956 22.3425 72.9717 22.5309 73.8584 22.5309Z" fill="white" fill-opacity="0.83"/>
<defs>
<clipPath id="clip0_8729_52628">
<rect x="0.101562" y="0.316406" width="27.2454" height="27.2454" rx="13.6227" fill="white"/>
</clipPath>
<clipPath id="clip1_8729_52628">
<rect width="30.8565" height="23.8436" fill="white" transform="translate(0.625 3.98438)"/>
</clipPath>
</defs>
</svg>
