<svg width="20" height="20" viewBox="0 0 20 20" fill="none" xmlns="http://www.w3.org/2000/svg">
<path fill-rule="evenodd" clip-rule="evenodd" d="M7.5 2.49998C6.17392 2.49998 4.90215 3.02677 3.96447 3.96445C3.02678 4.90213 2.5 6.1739 2.5 7.49998C2.5 8.82606 3.02678 10.0978 3.96447 11.0355C4.90215 11.9732 6.17392 12.5 7.5 12.5C8.82608 12.5 10.0979 11.9732 11.0355 11.0355C11.9732 10.0978 12.5 8.82606 12.5 7.49998C12.5 6.1739 11.9732 4.90213 11.0355 3.96445C10.0979 3.02677 8.82608 2.49998 7.5 2.49998ZM1.41827e-07 7.49998C-0.000150487 6.31961 0.278303 5.15587 0.812714 4.10341C1.34713 3.05095 2.1224 2.13948 3.0755 1.44314C4.02859 0.746798 5.13258 0.285247 6.29768 0.0960226C7.46279 -0.0932013 8.6561 -0.00475468 9.78058 0.354169C10.9051 0.713093 11.9289 1.33236 12.769 2.1616C13.609 2.99084 14.2414 4.00665 14.6148 5.1264C14.9882 6.24615 15.0921 7.43822 14.9179 8.60567C14.7437 9.77312 14.2965 10.883 13.6125 11.845L19.6338 17.8662C19.8615 18.102 19.9874 18.4177 19.9846 18.7455C19.9817 19.0732 19.8503 19.3867 19.6185 19.6185C19.3868 19.8503 19.0732 19.9817 18.7455 19.9846C18.4178 19.9874 18.102 19.8614 17.8663 19.6337L11.8463 13.6137C10.7242 14.4116 9.40419 14.8852 8.03085 14.9826C6.65751 15.0801 5.28384 14.7976 4.06038 14.1662C2.83691 13.5348 1.81086 12.5788 1.09465 11.4029C0.37845 10.2271 -0.000267564 8.87677 1.41827e-07 7.49998V7.49998Z" fill="white" fill-opacity="0.83"/>
</svg>
