<svg width="15" height="15" viewBox="0 0 18 18" fill="none" xmlns="http://www.w3.org/2000/svg">
<path d="M6.91543 0.632812C6.90137 0.695742 6.88379 0.75832 6.85918 0.819141C6.71504 1.1932 6.37754 1.46074 5.98027 1.52121L5.87129 1.80387C6.12441 2.11676 6.18769 2.54215 6.04355 2.91551C5.8959 3.28887 5.56191 3.55781 5.16465 3.61758L5.05566 3.89883C5.30527 4.21172 5.36855 4.63711 5.22441 5.01328C5.08027 5.38594 4.74277 5.65312 4.34551 5.71289L4.23652 5.99766C4.48965 6.31055 4.55293 6.73594 4.40527 7.10859C4.26113 7.48125 3.92715 7.75195 3.52988 7.81172L3.41738 8.09297C3.67051 8.40586 3.73379 8.83125 3.58965 9.20391C3.44199 9.57656 3.10801 9.84727 2.71145 9.90703L2.60141 10.1883C2.85277 10.5012 2.91746 10.9266 2.77156 11.2992C2.70036 11.4835 2.58162 11.6456 2.42743 11.7691C2.27324 11.8926 2.08909 11.9731 1.89371 12.0023L1.78402 12.2836C2.03539 12.5965 2.09973 13.0219 1.95418 13.398C1.91094 13.507 1.85082 13.609 1.77734 13.7004L1.925 14.0484C2.04313 14.0555 2.1609 14.0801 2.27375 14.1258C2.64711 14.2699 2.91641 14.6074 2.97687 15.0012L3.25918 15.1137C3.57207 14.8605 3.99746 14.7973 4.37012 14.9414C4.74277 15.0891 5.01348 15.423 5.07324 15.8203L5.35449 15.9293C5.66738 15.6797 6.09277 15.6129 6.46543 15.7605C6.83809 15.9047 7.10879 16.2422 7.16855 16.6395L7.4498 16.7484C7.76269 16.4953 8.18809 16.432 8.56074 16.5762C8.90879 16.7133 9.16191 17.0086 9.24629 17.3672H9.9248C10.1357 17.3039 10.3643 17.3039 10.5752 17.3672H11.317C11.3275 17.2687 11.3521 17.1703 11.3873 17.0754C11.5314 16.7027 11.8689 16.432 12.2662 16.3723L12.3752 16.091C12.1221 15.7781 12.0588 15.3527 12.2029 14.9801C12.3506 14.6074 12.6846 14.3367 13.0818 14.277L13.1908 13.9957C12.9412 13.6828 12.8779 13.2574 13.0221 12.8812C13.1662 12.5086 13.5037 12.2414 13.901 12.1816L14.01 11.8969C13.7568 11.584 13.6936 11.1586 13.8412 10.7859C13.9854 10.4133 14.3193 10.1426 14.7166 10.0828L14.8291 9.80156C14.576 9.48867 14.5127 9.06328 14.6568 8.69063C14.8045 8.31797 15.1385 8.04727 15.5357 7.9875L15.6447 7.70625C15.3951 7.39336 15.3283 6.96797 15.476 6.59531C15.5465 6.41105 15.6647 6.24883 15.8185 6.12528C15.9723 6.00173 16.1562 5.92129 16.3514 5.89219L16.4639 5.60742C16.2107 5.29453 16.1475 4.87266 16.2916 4.49648C16.3549 4.3418 16.4498 4.20117 16.5658 4.09219L16.4639 3.84258C16.2986 3.85664 16.1299 3.83203 15.9717 3.76875C15.599 3.62461 15.3283 3.28887 15.2686 2.8916L14.9873 2.78191C14.6744 3.03328 14.249 3.09762 13.8764 2.95207C13.5037 2.80652 13.233 2.47113 13.1732 2.07422L12.892 1.96418C12.5791 2.2159 12.1537 2.28023 11.7811 2.13469C11.4084 1.98879 11.1377 1.65375 11.0779 1.25648L10.7967 1.1468C10.4838 1.39816 10.0584 1.4625 9.68574 1.31695C9.37285 1.19566 9.13379 0.943242 9.03184 0.632812H6.91543ZM7.70293 1.75184L15.04 4.6125L10.5436 16.1438L3.20645 13.282L7.70293 1.75184ZM11.9533 4.15547L11.7248 4.74609L13.8201 5.56523L14.0486 4.97461L11.9533 4.15547ZM9.37988 4.86914C8.26191 4.88672 7.2248 5.54766 6.80645 6.62344C6.03652 8.66602 7.56582 9.88594 5.25254 11.7668L8.54668 13.05C8.56426 12.8637 8.91582 11.8828 9.21816 11.9285C9.21816 11.9285 10.4381 12.5262 10.8916 12.1922C11.0744 12.048 10.9795 11.4926 10.9795 11.4926L11.3662 11.4363L11.3029 11.1375L11.5561 11.0496L11.4928 10.7156L12.3365 10.4414C12.4139 10.459 12.1291 9.43945 11.9182 9.22148C12.0201 9.06328 12.115 8.89453 12.1818 8.72227C12.7408 7.28789 11.9955 5.65313 10.5049 5.07305C10.1357 4.92891 9.75254 4.86211 9.37988 4.86914ZM4.47559 12.3504L4.24707 12.9375L5.81855 13.5527L6.04707 12.9621L4.47559 12.3504Z" fill="#171717"/>
</svg>
