<svg width="20" height="20" viewBox="0 0 20 20" fill="none" xmlns="http://www.w3.org/2000/svg">
<path d="M13.2006 10.0913C14.4317 10.6725 15.4814 11.5777 16.2371 12.71C16.9929 13.8424 17.4262 15.159 17.4906 16.5188C17.4992 16.6434 17.4828 16.7684 17.4424 16.8866C17.402 17.0047 17.3384 17.1136 17.2554 17.2068C17.1723 17.3001 17.0715 17.3758 16.9588 17.4295C16.8461 17.4832 16.7238 17.5139 16.5991 17.5197C16.4744 17.5256 16.3497 17.5064 16.2325 17.4634C16.1153 17.4204 16.0078 17.3545 15.9165 17.2694C15.8251 17.1843 15.7516 17.0818 15.7004 16.968C15.6491 16.8541 15.6212 16.7312 15.6181 16.6063C15.55 15.162 14.9282 13.7994 13.882 12.8013C12.8357 11.8033 11.4453 11.2464 9.99935 11.2464C8.5534 11.2464 7.16298 11.8033 6.11673 12.8013C5.07047 13.7994 4.44874 15.162 4.3806 16.6063C4.36376 16.8508 4.25186 17.079 4.06887 17.242C3.88588 17.405 3.64634 17.4898 3.40155 17.4784C3.15676 17.467 2.92618 17.3601 2.75919 17.1808C2.59219 17.0014 2.50206 16.7638 2.5081 16.5188C2.57238 15.1591 3.00551 13.8426 3.76103 12.7103C4.51656 11.578 5.566 10.6727 6.79685 10.0913C6.00811 9.43345 5.44118 8.54857 5.17316 7.55706C4.90515 6.56555 4.94906 5.51555 5.29893 4.54988C5.6488 3.58422 6.28764 2.74976 7.12855 2.16003C7.96947 1.57029 8.97163 1.25391 9.99872 1.25391C11.0258 1.25391 12.028 1.57029 12.8689 2.16003C13.7098 2.74976 14.3486 3.58422 14.6985 4.54988C15.0484 5.51555 15.0923 6.56555 14.8243 7.55706C14.5563 8.54857 13.9893 9.43345 13.2006 10.0913ZM13.1243 6.25009C13.1243 5.42129 12.7951 4.62643 12.2091 4.04038C11.623 3.45433 10.8281 3.12509 9.99935 3.12509C9.17055 3.12509 8.37569 3.45433 7.78964 4.04038C7.20359 4.62643 6.87435 5.42129 6.87435 6.25009C6.87435 7.07889 7.20359 7.87375 7.78964 8.4598C8.37569 9.04585 9.17055 9.37509 9.99935 9.37509C10.8281 9.37509 11.623 9.04585 12.2091 8.4598C12.7951 7.87375 13.1243 7.07889 13.1243 6.25009Z" fill="#ffffffd3"/>
</svg>
