<svg width="20" height="20" viewBox="0 0 20 20" fill="none" xmlns="http://www.w3.org/2000/svg">
<path fill-rule="evenodd" clip-rule="evenodd" d="M10 1.25C10.2486 1.25 10.4871 1.34877 10.6629 1.52459C10.8387 1.7004 10.9375 1.93886 10.9375 2.1875V10.3125C10.9375 10.5611 10.8387 10.7996 10.6629 10.9754C10.4871 11.1512 10.2486 11.25 10 11.25C9.75136 11.25 9.51291 11.1512 9.33709 10.9754C9.16128 10.7996 9.0625 10.5611 9.0625 10.3125V2.1875C9.0625 1.93886 9.16128 1.7004 9.33709 1.52459C9.51291 1.34877 9.75136 1.25 10 1.25ZM5.1375 3.8125C5.31307 3.98828 5.41168 4.22656 5.41168 4.475C5.41168 4.72344 5.31307 4.96172 5.1375 5.1375C4.17634 6.09911 3.52188 7.32413 3.25687 8.65766C2.99186 9.99119 3.12819 11.3734 3.64864 12.6294C4.16909 13.8855 5.05028 14.959 6.18079 15.7143C7.31131 16.4696 8.6404 16.8727 10 16.8727C11.3596 16.8727 12.6887 16.4696 13.8192 15.7143C14.9497 14.959 15.8309 13.8855 16.3514 12.6294C16.8718 11.3734 17.0082 9.99119 16.7431 8.65766C16.4781 7.32413 15.8237 6.09911 14.8625 5.1375C14.6969 4.95978 14.6068 4.72472 14.611 4.48185C14.6153 4.23897 14.7137 4.00724 14.8855 3.83547C15.0572 3.66371 15.289 3.56532 15.5319 3.56103C15.7747 3.55675 16.0098 3.6469 16.1875 3.8125C17.4111 5.03624 18.2444 6.59535 18.5819 8.29266C18.9195 9.98997 18.7462 11.7493 18.0839 13.3481C17.4216 14.9469 16.3001 16.3134 14.8612 17.2748C13.4222 18.2362 11.7306 18.7494 10 18.7494C8.26946 18.7494 6.57777 18.2362 5.13886 17.2748C3.69995 16.3134 2.57844 14.9469 1.91614 13.3481C1.25385 11.7493 1.08052 9.98997 1.41807 8.29266C1.75562 6.59535 2.58888 5.03624 3.8125 3.8125C3.98829 3.63694 4.22657 3.53832 4.475 3.53832C4.72344 3.53832 4.96172 3.63694 5.1375 3.8125Z" fill="#ffffffd3"/>
</svg>
