<svg width="16" height="17" viewBox="0 0 16 17" fill="none" xmlns="http://www.w3.org/2000/svg">
<path d="M4.00033 13.8337C4.73366 13.8337 5.33366 13.2337 5.33366 12.5003V7.83366C5.33366 7.10033 4.73366 6.50033 4.00033 6.50033C3.26699 6.50033 2.66699 7.10033 2.66699 7.83366V12.5003C2.66699 13.2337 3.26699 13.8337 4.00033 13.8337ZM10.667 10.5003V12.5003C10.667 13.2337 11.267 13.8337 12.0003 13.8337C12.7337 13.8337 13.3337 13.2337 13.3337 12.5003V10.5003C13.3337 9.76699 12.7337 9.16699 12.0003 9.16699C11.267 9.16699 10.667 9.76699 10.667 10.5003ZM8.00033 13.8337C8.73366 13.8337 9.33366 13.2337 9.33366 12.5003V4.50033C9.33366 3.76699 8.73366 3.16699 8.00033 3.16699C7.26699 3.16699 6.66699 3.76699 6.66699 4.50033V12.5003C6.66699 13.2337 7.26699 13.8337 8.00033 13.8337Z" fill="#ffffff80"/>
</svg>
